<?xml version="1.0" standalone="no"?>
<!DOCTYPE svg PUBLIC "-//W3C//DTD SVG 20010904//EN"
 "http://www.w3.org/TR/2001/REC-SVG-20010904/DTD/svg10.dtd">
<svg version="1.0" xmlns="http://www.w3.org/2000/svg"
 width="482.000000pt" height="518.000000pt" viewBox="0 0 482.000000 518.000000"
 preserveAspectRatio="xMidYMid meet">

<g transform="translate(0.000000,518.000000) scale(0.100000,-0.100000)"
fill="#000000" stroke="none">
<path d="M2450 4575 c0 -57 4 -95 10 -95 6 0 10 38 10 95 0 57 -4 95 -10 95
-6 0 -10 -38 -10 -95z"/>
<path d="M2100 4631 c0 -29 32 -217 41 -231 13 -23 11 10 -6 119 -14 85 -34
150 -35 112z"/>
<path d="M2837 4624 c-8 -14 -57 -240 -57 -266 0 -43 12 -7 41 123 27 122 33
169 16 143z"/>
<path d="M1730 4525 c0 -20 174 -511 186 -524 2 -2 6 -2 9 1 3 3 -25 91 -63
194 -38 104 -82 224 -97 267 -28 77 -35 90 -35 62z"/>
<path d="M3196 4384 c-60 -123 -60 -124 -48 -124 5 0 32 51 62 113 29 61 55
115 57 120 2 4 0 7 -6 7 -5 0 -35 -52 -65 -116z"/>
<path d="M2154 4298 c4 -18 10 -54 13 -80 5 -45 23 -68 23 -32 0 38 -24 144
-33 144 -5 0 -7 -14 -3 -32z"/>
<path d="M3551 4258 c-108 -156 -123 -179 -117 -185 7 -8 15 2 101 130 37 53
65 102 63 108 -2 5 -23 -18 -47 -53z"/>
<path d="M1400 4240 c0 -15 134 -220 144 -220 13 0 3 20 -69 129 -64 98 -75
112 -75 91z"/>
<path d="M2128 4057 c-68 -56 -140 -115 -160 -131 -41 -31 -48 -55 -20 -78 33
-29 304 -208 314 -208 10 0 56 35 123 94 17 15 72 61 123 104 128 106 130 100
-76 224 -90 54 -167 98 -173 98 -5 0 -64 -46 -131 -103z"/>
<path d="M2707 4032 c-20 -89 -20 -92 -9 -92 5 0 16 35 25 78 20 89 20 92 9
92 -5 0 -16 -35 -25 -78z"/>
<path d="M3039 4043 c-73 -162 -95 -224 -70 -198 17 19 120 265 110 265 -5 0
-24 -30 -40 -67z"/>
<path d="M1122 3993 c48 -48 90 -84 93 -81 9 9 -148 168 -166 168 -8 0 25 -39
73 -87z"/>
<path d="M3289 3909 c-115 -164 -181 -270 -175 -276 8 -8 0 -18 96 127 45 69
98 146 117 172 19 27 33 53 31 60 -2 6 -34 -31 -69 -83z"/>
<path d="M3665 3900 c-44 -43 -76 -82 -72 -86 4 -5 47 31 95 79 48 48 80 87
72 86 -8 0 -51 -36 -95 -79z"/>
<path d="M1580 3963 c0 -7 84 -140 96 -152 2 -2 7 -2 10 2 4 3 -15 40 -42 81
-44 68 -64 89 -64 69z"/>
<path d="M2567 3808 c-56 -50 -130 -120 -165 -154 -55 -54 -62 -65 -51 -81 12
-18 302 -215 326 -221 12 -3 85 61 256 227 62 59 87 91 85 105 -2 14 -53 50
-167 118 -90 54 -168 98 -173 98 -4 0 -54 -41 -111 -92z"/>
<path d="M800 3813 c1 -12 183 -134 189 -127 6 6 5 8 -103 85 -66 47 -86 57
-86 42z"/>
<path d="M1310 3812 c0 -13 179 -186 186 -180 6 6 -167 188 -179 188 -4 0 -7
-3 -7 -8z"/>
<path d="M4035 3739 c-62 -44 -88 -69 -71 -69 12 0 156 103 156 111 0 15 -12
9 -85 -42z"/>
<path d="M1661 3641 c-90 -76 -168 -146 -173 -155 -7 -13 -2 -23 20 -44 53
-50 272 -212 286 -212 7 0 26 11 42 25 224 192 309 271 312 291 3 18 -14 34
-90 87 -51 36 -118 84 -149 106 -31 23 -63 41 -70 40 -8 0 -88 -62 -178 -138z"/>
<path d="M3320 3555 c-90 -90 -162 -167 -159 -169 3 -3 79 69 169 159 90 90
162 167 159 169 -3 3 -79 -69 -169 -159z"/>
<path d="M1120 3594 c1 -9 211 -154 224 -154 20 0 -7 23 -98 85 -105 71 -126
82 -126 69z"/>
<path d="M3733 3533 c-29 -20 -50 -40 -47 -45 6 -9 114 62 114 75 0 13 -15 7
-67 -30z"/>
<path d="M2055 3367 c-135 -113 -170 -148 -170 -167 0 -20 26 -45 135 -126
133 -101 135 -102 150 -81 40 58 65 71 230 121 72 22 93 34 138 77 56 55 62
71 35 94 -53 44 -320 224 -333 225 -8 0 -91 -65 -185 -143z"/>
<path d="M630 3470 c0 -13 109 -62 130 -57 14 3 0 11 -95 52 -21 9 -35 11 -35
5z"/>
<path d="M3287 3398 c-80 -27 -117 -44 -115 -53 4 -17 337 -235 358 -234 26 1
253 104 257 116 2 6 -33 34 -79 61 -46 27 -119 72 -163 101 -54 34 -90 51
-110 50 -16 -1 -83 -19 -148 -41z"/>
<path d="M1260 3303 c-204 -187 -230 -213 -230 -226 0 -7 15 -27 33 -44 53
-50 269 -223 278 -223 10 0 40 26 199 170 145 131 162 149 158 168 -5 24 -288
252 -313 252 -11 -1 -66 -44 -125 -97z"/>
<path d="M4220 3363 c-41 -20 -70 -38 -63 -40 14 -5 163 58 163 70 0 13 -24 6
-100 -30z"/>
<path d="M831 3375 c47 -25 261 -106 272 -102 6 2 -14 13 -44 26 -30 12 -63
26 -74 31 -102 46 -219 81 -154 45z"/>
<path d="M2898 3258 c-86 -30 -148 -56 -148 -63 0 -16 335 -235 359 -235 28 0
325 106 328 117 3 9 -256 186 -324 221 -33 18 -56 14 -215 -40z"/>
<path d="M4013 3273 c-35 -14 -63 -30 -63 -35 0 -6 6 -8 13 -5 87 35 127 53
127 60 0 11 -9 8 -77 -20z"/>
<path d="M2472 3093 c-118 -40 -192 -69 -189 -76 4 -15 347 -247 363 -247 7 0
70 23 140 51 71 28 153 60 182 71 28 11 52 23 52 28 0 13 -328 240 -345 239
-5 0 -97 -30 -203 -66z"/>
<path d="M3688 3096 c-70 -22 -129 -44 -132 -47 -4 -3 -18 -44 -32 -90 -81
-264 -94 -313 -86 -321 8 -8 117 35 232 91 l45 23 59 181 c33 100 60 186 60
191 2 17 -22 13 -146 -28z m-148 -326 c0 -33 -3 -40 -20 -40 -24 0 -26 17 -3
42 15 17 15 18 0 18 -10 0 -17 5 -17 10 0 6 9 10 20 10 17 0 20 -7 20 -40z"/>
<path d="M3510 2750 c0 -5 5 -10 10 -10 6 0 10 5 10 10 0 6 -4 10 -10 10 -5 0
-10 -4 -10 -10z"/>
<path d="M1625 2926 c-93 -85 -171 -159 -173 -166 -2 -6 2 -18 10 -27 26 -32
291 -243 304 -243 12 0 326 276 346 305 4 5 8 18 8 27 0 20 -286 258 -309 258
-9 0 -92 -70 -186 -154z"/>
<path d="M496 3051 c5 -5 36 -14 69 -20 33 -6 80 -15 105 -21 54 -11 96 -13
86 -3 -8 8 -218 52 -250 53 -12 0 -16 -3 -10 -9z"/>
<path d="M4300 3009 c-107 -22 -125 -27 -117 -35 9 -9 247 37 247 47 0 12 -18
10 -130 -12z"/>
<path d="M1030 2965 c0 -2 15 -36 34 -77 18 -40 47 -103 63 -139 27 -58 40
-74 114 -130 135 -104 193 -145 187 -129 -4 8 -28 67 -54 130 -46 113 -76 160
-100 160 -6 0 -14 6 -17 13 -5 12 -227 181 -227 172z"/>
<path d="M3275 2905 c-131 -50 -140 -55 -151 -87 -26 -75 -98 -378 -91 -384
10 -10 297 127 307 146 10 18 110 355 110 370 0 17 -30 10 -175 -45z"/>
<path d="M3923 2936 c-62 -11 -94 -26 -57 -26 36 0 139 21 149 31 11 11 -10
10 -92 -5z"/>
<path d="M2223 2908 c-5 -7 -27 -78 -47 -158 -21 -80 -44 -165 -52 -189 -8
-25 -14 -50 -14 -57 0 -11 84 -72 312 -228 31 -21 63 -36 72 -33 8 3 21 30 29
59 35 122 87 332 87 352 0 15 -19 34 -63 63 -34 23 -115 78 -180 122 -64 45
-121 81 -126 81 -5 0 -13 -6 -18 -12z"/>
<path d="M3030 2813 c-89 -29 -318 -117 -327 -126 -7 -7 -28 -75 -48 -152 -20
-77 -45 -171 -56 -210 -10 -38 -15 -73 -10 -78 4 -4 41 7 82 26 41 19 118 55
171 80 103 48 104 48 131 142 8 28 32 108 52 178 37 125 38 150 5 140z"/>
<path d="M460 2670 c0 -6 59 -10 156 -10 101 0 153 3 149 10 -4 6 -67 10 -156
10 -93 0 -149 -4 -149 -10z"/>
<path d="M925 2670 c-4 -6 25 -10 79 -10 51 0 86 4 86 10 0 6 -33 10 -79 10
-44 0 -83 -4 -86 -10z"/>
<path d="M3985 2670 c-4 -6 17 -10 55 -10 38 0 59 4 55 10 -3 6 -28 10 -55 10
-27 0 -52 -4 -55 -10z"/>
<path d="M4185 2670 c-4 -6 43 -10 134 -10 87 0 141 4 141 10 0 6 -51 10 -134
10 -79 0 -137 -4 -141 -10z"/>
<path d="M1480 2523 c55 -131 60 -140 111 -179 129 -98 251 -185 254 -182 1 2
-18 58 -44 126 l-47 124 -95 71 c-53 40 -123 92 -155 117 -32 25 -64 49 -71
53 -6 4 15 -55 47 -130z"/>
<path d="M3620 2646 c-105 -39 -220 -89 -229 -99 -17 -21 -123 -399 -114 -408
8 -8 131 43 247 101 27 14 35 33 93 208 35 106 61 197 58 203 -8 11 -12 11
-55 -5z"/>
<path d="M1250 2483 c57 -108 82 -145 109 -164 20 -13 78 -55 129 -92 51 -38
95 -67 97 -65 2 2 -24 59 -57 128 -55 116 -64 128 -116 165 -31 22 -90 65
-131 95 -42 31 -82 60 -90 65 -8 4 19 -55 59 -132z"/>
<path d="M3132 2408 c-84 -39 -157 -78 -162 -88 -13 -24 -100 -364 -100 -389
0 -12 2 -21 5 -21 18 0 316 158 321 170 3 8 21 67 39 130 19 63 43 146 54 185
12 38 21 73 21 77 0 16 -28 5 -178 -64z"/>
<path d="M995 2416 c-33 -7 -104 -21 -158 -31 -54 -10 -100 -22 -103 -27 -7
-10 22 -10 66 1 19 5 90 19 157 31 68 13 120 26 117 31 -6 11 -3 11 -79 -5z"/>
<path d="M3804 2391 c3 -5 27 -12 53 -15 27 -4 56 -9 66 -12 9 -3 17 -1 17 4
0 6 -23 15 -50 21 -62 13 -93 14 -86 2z"/>
<path d="M2077 2368 c-3 -13 -22 -108 -43 -211 -37 -185 -37 -189 -18 -207 10
-10 86 -66 167 -125 160 -114 189 -125 195 -70 2 17 12 55 22 85 44 132 80
292 70 305 -23 28 -350 245 -368 245 -12 0 -22 -9 -25 -22z"/>
<path d="M4030 2352 c0 -10 151 -41 163 -34 14 7 5 10 -73 26 -87 18 -90 19
-90 8z"/>
<path d="M568 2336 c-69 -11 -100 -26 -56 -26 41 0 138 22 138 31 0 5 -3 8 -7
8 -5 -1 -38 -6 -75 -13z"/>
<path d="M1561 2323 c0 -4 28 -63 62 -130 l62 -122 125 -100 c68 -55 128 -97
132 -95 4 3 8 13 8 22 0 20 -49 161 -62 178 -14 19 -328 256 -327 247z"/>
<path d="M4260 2310 c0 -4 28 -13 63 -20 34 -6 70 -14 80 -17 9 -2 17 0 17 6
0 12 -18 17 -102 29 -32 5 -58 6 -58 2z"/>
<path d="M2710 2229 c-91 -39 -168 -73 -172 -78 -5 -4 -19 -50 -33 -101 -68
-257 -86 -333 -78 -341 6 -6 344 140 361 156 5 5 111 366 118 402 5 28 3 33
-12 33 -11 -1 -93 -32 -184 -71z"/>
<path d="M1350 2288 c0 -2 26 -54 58 -116 l57 -111 125 -90 c69 -49 126 -88
127 -87 2 1 -16 46 -40 98 l-42 97 -110 82 c-60 45 -125 93 -142 107 -18 13
-33 22 -33 20z"/>
<path d="M1195 2184 c-92 -36 -101 -41 -94 -49 6 -5 190 63 204 76 18 17 -20
8 -110 -27z"/>
<path d="M3353 2103 l-132 -74 -24 -77 c-14 -42 -37 -117 -52 -167 -15 -49
-29 -93 -32 -98 -2 -4 2 -10 10 -13 7 -2 72 31 143 75 114 71 131 85 148 123
24 55 106 286 106 298 0 21 -40 5 -167 -67z"/>
<path d="M3703 2107 c3 -10 157 -80 295 -133 66 -25 89 -17 25 9 -21 9 -102
43 -181 75 -79 33 -141 55 -139 49z"/>
<path d="M940 2083 c-74 -28 -346 -136 -349 -139 -2 -2 -2 -7 1 -10 5 -5 385
141 397 152 6 6 -32 3 -49 -3z"/>
<path d="M1710 2007 c0 -26 75 -196 92 -209 96 -74 108 -80 115 -61 4 10 7 38
8 62 0 44 -1 46 -80 108 -107 84 -135 105 -135 100z"/>
<path d="M3085 1964 c-33 -20 -100 -59 -150 -87 -49 -27 -92 -51 -94 -53 -4
-3 -28 -87 -71 -247 -21 -81 -25 -109 -16 -113 7 -3 78 36 158 86 l146 91 50
157 c57 178 61 194 47 198 -5 2 -37 -12 -70 -32z"/>
<path d="M1270 1874 c-74 -47 -142 -89 -150 -94 -8 -5 -12 -12 -8 -15 8 -8
308 175 308 188 0 14 -16 6 -150 -79z"/>
<path d="M4120 1931 c0 -7 146 -71 163 -71 15 0 6 18 -10 23 -10 3 -48 17 -85
31 -38 14 -68 22 -68 17z"/>
<path d="M1968 1867 c-10 -8 -29 -79 -52 -193 -20 -99 -36 -185 -36 -192 0
-18 307 -272 329 -272 11 0 22 8 25 18 3 9 28 102 56 206 34 131 47 193 40
202 -6 6 -29 24 -53 40 -23 16 -94 65 -157 110 -144 101 -134 96 -152 81z"/>
<path d="M1600 1815 c-24 -24 -41 -47 -38 -51 7 -7 98 74 98 87 0 18 -17 8
-60 -36z"/>
<path d="M3668 1807 c20 -24 151 -109 163 -105 6 2 -27 29 -74 61 -84 56 -109
69 -89 44z"/>
<path d="M2630 1729 c-58 -34 -130 -75 -160 -91 -30 -17 -60 -35 -66 -42 -12
-11 -104 -341 -104 -370 0 -9 5 -16 10 -16 6 0 84 46 175 102 l164 102 46 146
c26 80 51 158 56 174 12 39 11 56 -4 56 -6 0 -59 -27 -117 -61z"/>
<path d="M3457 1704 c-6 -11 131 -157 143 -152 4 2 -25 38 -65 82 -40 43 -75
74 -78 70z"/>
<path d="M905 1637 c-33 -23 -71 -50 -84 -59 -14 -10 -22 -20 -19 -24 6 -5
188 112 188 121 0 14 -31 0 -85 -38z"/>
<path d="M3173 1616 c5 -13 78 -127 94 -145 1 -2 6 -2 9 2 7 6 -80 142 -98
153 -8 5 -9 2 -5 -10z"/>
<path d="M1318 1534 c-49 -47 -88 -90 -88 -97 0 -10 31 18 162 146 15 15 28
30 28 32 0 15 -24 -4 -102 -81z"/>
<path d="M1622 1478 c-116 -167 -116 -168 -103 -168 5 0 32 32 58 71 26 38 66
96 89 127 64 90 77 112 66 112 -6 0 -55 -64 -110 -142z"/>
<path d="M3971 1603 c0 -13 100 -74 112 -70 6 2 -13 20 -43 40 -55 37 -70 44
-69 30z"/>
<path d="M2933 1448 c2 -7 10 -30 17 -50 8 -21 20 -40 27 -42 9 -4 7 10 -7 47
-11 29 -20 53 -20 55 0 1 -5 2 -11 2 -6 0 -9 -6 -6 -12z"/>
<path d="M1109 1329 c-39 -39 -68 -73 -64 -77 3 -3 40 29 83 71 42 42 71 77
64 77 -7 0 -45 -32 -83 -71z"/>
<path d="M2680 1377 c0 -37 20 -130 31 -141 12 -13 12 -5 -5 82 -15 77 -26
103 -26 59z"/>
<path d="M3761 1363 c72 -82 108 -117 114 -112 8 9 -107 137 -124 138 -10 1
-7 -8 10 -26z"/>
<path d="M1845 1288 c-22 -51 -41 -96 -43 -100 -2 -4 0 -8 5 -8 9 0 93 176 93
193 0 25 -20 -5 -55 -85z"/>
<path d="M2990 1319 c0 -18 44 -150 59 -176 29 -51 -2 67 -43 157 -8 19 -15
28 -16 19z"/>
<path d="M1374 1123 c-68 -101 -69 -103 -56 -103 9 0 132 171 132 184 0 21
-25 -5 -76 -81z"/>
<path d="M2440 1079 c0 -77 4 -118 10 -114 6 4 10 55 10 121 0 69 -4 114 -10
114 -6 0 -10 -47 -10 -121z"/>
<path d="M2157 1175 c-5 -17 -27 -132 -27 -142 0 -2 4 -3 9 -3 11 0 36 131 29
151 -3 10 -7 8 -11 -6z"/>
<path d="M3470 1160 c0 -18 97 -162 103 -153 5 8 -88 163 -98 163 -3 0 -5 -4
-5 -10z"/>
<path d="M2741 1075 c-1 -23 59 -368 65 -374 14 -14 10 24 -17 178 -29 168
-47 240 -48 196z"/>
<path d="M1692 939 c-24 -55 -41 -103 -38 -107 3 -3 8 -3 10 -1 7 8 86 192 86
200 0 29 -20 -3 -58 -92z"/>
<path d="M3110 990 c0 -19 58 -172 71 -184 15 -16 11 8 -17 79 -30 82 -53 126
-54 105z"/>
<path d="M2116 959 c-11 -29 -46 -218 -45 -241 0 -22 1 -22 9 -2 14 35 53 245
46 251 -3 3 -8 0 -10 -8z"/>
<path d="M2450 780 c0 -78 4 -119 10 -115 6 4 10 53 10 115 0 62 -4 111 -10
115 -6 4 -10 -37 -10 -115z"/>
</g>
</svg>
