<?xml version="1.0" standalone="no"?>
<!DOCTYPE svg PUBLIC "-//W3C//DTD SVG 20010904//EN"
 "http://www.w3.org/TR/2001/REC-SVG-20010904/DTD/svg10.dtd">
<svg version="1.0" xmlns="http://www.w3.org/2000/svg"
 width="666.000000pt" height="375.000000pt" viewBox="0 0 666.000000 375.000000"
 preserveAspectRatio="xMidYMid meet">

<g transform="translate(0.000000,375.000000) scale(0.100000,-0.100000)"
fill="#000000" stroke="none">
<path d="M1890 2418 c-75 -60 -110 -91 -110 -97 0 -8 125 -91 136 -91 4 0 38
25 76 56 67 54 69 57 51 74 -10 9 -43 31 -73 48 l-55 30 -25 -20z"/>
<path d="M2023 2272 c-35 -32 -63 -63 -63 -70 0 -12 112 -92 130 -92 13 0 140
119 140 130 0 7 -133 91 -142 90 -2 -1 -31 -27 -65 -58z"/>
<path d="M1670 2224 c-36 -31 -69 -59 -73 -63 -9 -8 105 -101 123 -101 13 0
148 111 149 123 1 7 -117 97 -128 97 -3 0 -35 -25 -71 -56z"/>
<path d="M1834 2109 c-38 -33 -70 -64 -72 -69 -2 -4 22 -26 53 -48 55 -39 57
-40 75 -22 10 10 42 25 72 34 56 16 95 47 83 65 -5 9 -93 72 -131 94 -5 3 -41
-21 -80 -54z"/>
<path d="M2895 2145 l-25 -24 0 -299 0 -299 38 -7 c60 -10 200 -7 207 4 4 6 4
28 0 49 l-6 39 -70 6 -69 7 0 79 0 80 69 35 c38 19 72 38 74 42 3 5 2 31 0 60
l-5 52 -56 -30 c-81 -43 -82 -42 -82 51 l0 80 76 0 77 0 -7 38 c-3 20 -6 43
-6 50 0 9 -26 12 -95 12 -88 0 -98 -2 -120 -25z"/>
<path d="M3170 2126 c0 -51 9 -56 103 -56 41 0 57 -4 57 -13 0 -8 -34 -106
-77 -218 -51 -137 -78 -222 -80 -260 l-5 -56 48 -7 c74 -10 222 -7 229 4 4 6
4 28 0 49 l-6 39 -80 6 c-43 4 -79 9 -79 12 0 2 18 52 41 111 113 297 130 350
123 392 l-7 41 -133 0 -134 0 0 -44z"/>
<path d="M3670 2126 c0 -47 11 -56 73 -56 l27 0 0 -274 0 -273 46 -7 c25 -3
50 -3 55 0 5 3 9 129 9 280 l0 274 50 0 c48 0 50 1 50 28 0 15 -3 37 -6 50 -6
22 -9 22 -155 22 l-149 0 0 -44z"/>
<path d="M4030 1845 c0 -311 1 -325 19 -325 10 0 33 -3 50 -6 l31 -6 0 331 0
331 -50 0 -50 0 0 -325z"/>
<path d="M4253 2160 c-12 -5 -26 -18 -32 -29 -7 -13 -11 -125 -11 -315 0 -283
1 -296 19 -296 10 0 33 -3 50 -6 l31 -6 0 281 0 281 40 0 40 0 0 -274 0 -273
46 -7 c25 -3 50 -3 55 0 5 3 9 129 9 280 l0 274 34 0 c22 0 36 -6 40 -16 3 -9
6 -132 6 -274 l0 -257 38 -7 c20 -3 43 -6 50 -6 9 0 12 67 12 301 l0 301 -29
29 c-26 26 -36 29 -94 29 -50 0 -70 -5 -91 -21 l-26 -20 -26 20 c-20 16 -41
21 -83 20 -31 0 -66 -4 -78 -9z"/>
<path d="M4785 2145 l-25 -24 0 -299 0 -299 38 -7 c60 -10 200 -7 207 4 4 6 4
28 0 49 l-6 39 -70 6 -70 7 3 81 3 81 62 31 c35 18 67 36 73 42 5 5 7 32 3 62
l-6 52 -43 -25 c-23 -14 -54 -29 -68 -35 l-26 -10 0 85 0 85 75 0 c82 0 82 0
69 69 l-6 31 -95 0 c-86 0 -96 -2 -118 -25z"/>
<path d="M5070 1845 l0 -325 30 -2 c81 -5 74 -17 71 113 -3 120 6 150 34 113
7 -10 32 -64 56 -121 l44 -102 53 -7 c29 -3 55 -4 58 -1 3 3 -22 65 -56 139
-34 73 -64 138 -67 145 -3 7 10 20 31 30 l36 17 0 134 0 134 -29 29 c-29 29
-31 29 -145 29 l-116 0 0 -325z m184 194 c3 -17 6 -53 6 -80 0 -47 -2 -49 -40
-69 -21 -11 -42 -20 -45 -20 -3 0 -5 45 -5 100 l0 100 39 0 c35 0 39 -3 45
-31z"/>
<path d="M5430 1920 l0 -250 55 0 55 0 0 234 c0 129 -3 241 -6 250 -4 12 -20
16 -55 16 l-49 0 0 -250z"/>
<path d="M2348 2122 c-27 -8 -48 -18 -48 -21 0 -3 32 -27 72 -52 l72 -46 53
21 c55 22 64 32 36 43 -9 4 -39 21 -67 40 -57 37 -54 37 -118 15z"/>
<path d="M1471 2053 l-73 -68 66 -53 67 -53 37 30 c20 16 54 47 75 69 l39 40
-62 51 c-33 28 -65 51 -69 51 -4 0 -41 -30 -80 -67z"/>
<path d="M2182 2061 c-29 -10 -52 -21 -51 -27 2 -5 33 -28 70 -51 l67 -42 66
22 c36 11 66 24 66 28 0 12 -130 89 -148 88 -9 -1 -41 -9 -70 -18z"/>
<path d="M2003 1993 c-40 -14 -70 -29 -67 -34 3 -5 35 -29 72 -53 l66 -44 70
25 c39 14 75 28 79 33 9 8 -121 101 -138 99 -5 -1 -43 -12 -82 -26z"/>
<path d="M2508 1993 l-47 -14 -26 -80 c-14 -44 -25 -84 -25 -90 0 -5 26 4 58
20 56 28 58 31 80 98 12 38 22 72 22 76 0 9 -5 8 -62 -10z m-62 -150 c-11 -11
-17 4 -9 23 7 18 8 18 11 1 2 -10 1 -21 -2 -24z"/>
<path d="M1650 1920 c-47 -43 -71 -72 -65 -77 50 -44 115 -93 125 -93 15 0
140 120 139 134 0 10 -111 107 -121 106 -1 -1 -37 -32 -78 -70z"/>
<path d="M2345 1915 l-60 -23 -23 -78 c-12 -43 -21 -82 -20 -86 2 -4 30 5 63
20 l60 29 23 78 c13 42 22 79 20 80 -2 1 -30 -8 -63 -20z"/>
<path d="M1432 1880 c15 -35 36 -63 71 -90 27 -22 52 -39 54 -37 2 2 -6 26
-17 53 -14 33 -35 59 -62 79 -68 49 -69 49 -46 -5z"/>
<path d="M1881 1842 c-12 -43 -21 -83 -21 -89 0 -10 118 -99 146 -110 10 -4
54 130 54 165 0 10 -140 112 -153 112 -3 0 -14 -35 -26 -78z"/>
<path d="M2176 1854 c-38 -13 -71 -26 -73 -28 -7 -7 -43 -149 -43 -169 0 -15
10 -13 72 20 l71 38 23 80 c13 44 22 80 21 81 -1 1 -33 -9 -71 -22z"/>
<path d="M2438 1788 c-49 -21 -56 -32 -87 -151 -9 -36 -9 -38 12 -31 76 23 91
39 119 123 17 52 22 81 15 80 -7 0 -33 -10 -59 -21z"/>
<path d="M1580 1796 c0 -3 7 -24 16 -46 11 -28 37 -58 77 -90 34 -27 62 -48
64 -46 2 1 -6 24 -17 49 -15 33 -38 60 -80 92 -33 26 -60 44 -60 41z"/>
<path d="M1496 1741 c25 -46 121 -138 132 -126 2 2 -6 21 -17 43 -17 34 -60
75 -130 127 -8 5 -1 -14 15 -44z"/>
<path d="M2280 1706 c-70 -34 -66 -27 -104 -179 l-7 -28 69 35 68 34 22 83
c12 45 21 83 20 84 -2 2 -32 -12 -68 -29z"/>
<path d="M1826 1613 l-17 -88 27 -20 c15 -11 47 -35 72 -53 24 -18 45 -32 47
-30 6 7 45 147 45 161 0 14 -109 100 -143 113 -10 4 -18 -16 -31 -83z"/>
<path d="M1632 1663 c29 -68 49 -95 92 -130 54 -45 64 -43 46 9 -8 22 -33 49
-77 81 -36 26 -63 44 -61 40z"/>
<path d="M2100 1630 l-65 -28 -26 -91 c-14 -50 -23 -91 -19 -91 15 0 139 60
145 70 17 27 52 170 41 169 -6 0 -40 -13 -76 -29z"/>
<path d="M1550 1633 c0 -21 41 -71 84 -101 25 -18 46 -30 46 -27 0 16 -35 72
-53 85 -47 35 -77 51 -77 43z"/>
<path d="M5430 1568 l0 -53 55 -2 55 -2 0 32 c0 68 -8 77 -61 77 l-49 0 0 -52z"/>
<path d="M2373 1579 c-49 -29 -54 -35 -73 -96 -11 -37 -18 -68 -16 -70 5 -6
91 44 104 60 8 10 52 123 52 134 0 8 -19 -1 -67 -28z"/>
<path d="M1701 1500 c12 -34 56 -73 72 -63 9 5 6 -30 -9 -93 -4 -16 9 -34 57
-78 35 -31 67 -55 73 -53 5 2 19 40 31 86 l22 82 -31 23 c-52 39 -110 76 -118
76 -5 0 -8 -6 -8 -14 0 -9 -12 -3 -32 15 -17 17 -39 34 -49 40 -16 8 -17 6 -8
-21z"/>
<path d="M2218 1497 c-55 -31 -57 -34 -77 -101 -12 -38 -19 -72 -16 -74 3 -3
30 11 61 30 51 31 59 42 80 98 36 94 36 94 -48 47z"/>
<path d="M2056 1415 c-77 -44 -83 -51 -101 -120 -23 -88 -19 -91 57 -40 65 44
68 47 88 116 12 39 20 72 18 74 -2 2 -29 -11 -62 -30z"/>
<path d="M1993 1155 c0 -27 2 -38 4 -22 2 15 2 37 0 50 -2 12 -4 0 -4 -28z"/>
</g>
</svg>
